<?xml version="1.0" encoding="UTF-8" standalone="no"?>
<svg width="180px" height="150px" viewBox="0 0 180 150" version="1.1" xmlns="http://www.w3.org/2000/svg" xmlns:xlink="http://www.w3.org/1999/xlink" xmlns:sketch="http://www.bohemiancoding.com/sketch/ns">
    <!-- Generator: Sketch 3.4.4 (17249) - http://www.bohemiancoding.com/sketch -->
    <title>cite</title>
    <desc>Created with Sketch.</desc>
    <defs></defs>
    <g id="Page-1" stroke="none" stroke-width="1" fill="none" fill-rule="evenodd" sketch:type="MSPage">
        <g id="cite" sketch:type="MSArtboardGroup" fill="#EEEEEE">
            <path d="M10.9749724,38.3409307 C10.9749724,55.3859982 25.2708355,68.5821796 41.2162213,68.5821796 C42.865744,68.5821796 45.0651075,68.0323387 48.9139937,67.4824978 C49.4638346,71.8812249 50.0136755,75.1802702 50.0136755,77.3796338 C50.0136755,99.3732694 37.3673351,118.06786 11.5248133,134.013245 L18.122904,142.8107 C52.76288,125.215791 78.6054017,90.5758151 78.6054017,57.5853618 C78.6054017,29.5434764 66.5089022,7 42.3159031,7 C24.7209946,7 10.9749724,20.7460222 10.9749724,38.3409307 L10.9749724,38.3409307 Z M102.073611,38.3409307 C102.073611,55.3859982 116.369474,68.5821796 132.314859,68.5821796 C133.964382,68.5821796 136.163746,68.0323387 140.012632,67.4824978 C140.562473,71.8812249 141.112314,75.1802702 141.112314,77.3796338 C141.112314,99.3732694 128.465973,118.06786 102.623451,134.013245 L109.221542,142.8107 C143.861518,125.215791 169.70404,90.5758151 169.70404,57.5853618 C169.70404,29.5434764 157.60754,7 133.414541,7 C115.819633,7 102.073611,20.7460222 102.073611,38.3409307 L102.073611,38.3409307 Z" id="’’" sketch:type="MSShapeGroup"></path>
        </g>
    </g>
</svg>