<?xml version="1.0" encoding="utf-8"?>
<!-- Generator: Adobe Illustrator 19.2.1, SVG Export Plug-In . SVG Version: 6.00 Build 0)  -->
<svg version="1.1" id="Layer_1" xmlns="http://www.w3.org/2000/svg" xmlns:xlink="http://www.w3.org/1999/xlink" x="0px" y="0px"
	 viewBox="0 0 500 420" style="enable-background:new 0 0 500 420;" xml:space="preserve">
<style type="text/css">
	.st0{fill-rule:evenodd;clip-rule:evenodd;fill:#FFFFFF;}
</style>
<g>
	<path class="st0" d="M159.4,78.6c20-6.8,35.8-23.9,32.4-32.8c-1.6-3.3-5.5-2.9-8.7-0.4C173.5,54,163.9,66.6,159.4,78.6 M46.7,154.2
		c-5.8,30.5,54,28.8,72-7.5C90.6,125.7,53.3,134.7,46.7,154.2z M255,98.7c6.6,0,11.9,5.3,11.9,11.8c0,6.5-5.3,11.8-11.9,11.8
		c-6.6,0-11.9-5.3-11.9-11.8C243.1,104,248.4,98.7,255,98.7z M401.6,166.5c5.6-16,15.6-28,22.2-22C429.4,152,417,160.1,401.6,166.5z
		 M443.6,157.7c15.8-8.9,32.2-14.8,49.4-17l-5.1,12.7c-16.5-0.3-32.1,8.5-47.3,20.7L443.6,157.7z M105.9,221
		c3.4-2.1,6.8-4.3,9.6-6.6c2.9-2.3,5.2-4.7,6.5-7.1c0.6-1.1,1-2.1,1.1-3.1c0.1-0.9,0-1.9-0.5-2.9c-0.3-0.3-0.6-0.4-1.1-0.3
		c-0.7,0.1-1.5,0.6-2.5,1.2C114.2,208,109.8,214.2,105.9,221z M118,281.8l0.3,0c-0.4-1.9-0.9-3.5-1.6-4.7c-0.3-0.6-0.8-1.1-1.3-1.6
		c-0.6-0.6-1.3-1-2-1.1c-0.6-0.1-1.1-0.1-1.6,0.2c-0.2,0.1-0.3,0.2-0.5,0.4c-0.5,0.7-0.8,1.5-0.7,2.3c0,0.6,0.2,1.1,0.5,1.6
		c0.3,0.5,0.7,1,1.3,1.5C113.6,281.3,115.5,281.8,118,281.8z M153.5,241.9c-1.5-2.9-2.4-6.5-2.5-10.8c0-0.7,0.5-1.9,1.2-2
		C154.6,228.6,154.9,235.3,153.5,241.9z M228,212.4c5.2,0,9.4,4.2,9.4,9.4c0,5.2-4.2,9.4-9.4,9.4c-5.2,0-9.4-4.2-9.4-9.4
		C218.6,216.6,222.8,212.4,228,212.4z M281.9,253.2l-13.4,33.3c-15.7,20.9-25.7,25.5-28.5,17.7c-0.9-8.9,2.5-24.2,15.4-40.1
		C264,254.5,273.9,249.2,281.9,253.2z M358.2,251.4c-16.1-1.6-27.9,8.8-37.3,25.8c-3.6,6.6-6.6,15.6-8.3,22.3
		c-1.4,10,5.7,13.3,13.5,8.1c9.8-8.5,18.1-18.2,23.5-30.8C352.1,268.7,355.7,259.9,358.2,251.4z M376.9,242.2
		c-24.2-2.4-34.5-1.2-41.8,2.3c-13.3,6.4-23.1,19.6-31.2,37.8c-5.1,10-7.3,18-7,24.4c-1.4,1.8-2.9,3.6-4.5,5.4
		c-8.6,9.7-18.9,3.5-15.3-6.3l37.3-89.9h-17.6l-11.7,26.7c-17.4-11.7-40.8,8.6-52.4,33.8c-3,6.1-5.3,12.2-6.5,17.9l-8.7,14.1
		c-5.3,7.6-8.6,9.1-11.2,8.4c-4.1-1.1-4-7.6-3.2-10.8c3.7-16,18.7-44,31.4-68.6l-19.1,0c-2.3,4.5-6.7,13.7-7.4,14.9
		c-10.1,19.4-17.6,35.2-18.6,50.5c-0.1,10.9,3.1,18.7,12.6,21.2c6.7,2,16.1-1.8,23.4-14.5c1.1,6.7,4.5,11.8,10.8,14.1
		c11.8,3.4,21-4.1,28.3-20.2c-3.1,15.9,1,21.9,13.6,22.8c6.7-0.2,13.3-4.1,20.3-12.6c1.7,4.2,4.9,7.3,9.2,9.6
		c12.8,3.8,25.1-2,38-22.1c-3.2,14.1-5.5,28.5-6.6,43.4c-13,4.1-26.2,10.6-35.1,18.8c-11.5,12.6-15.9,25.6-11,38.9
		c5.4,12.2,19.8,17.1,29.9,14.5c8.5-4,16.6-13.3,21-25c3.9-10.4,5.7-23.2,7.4-38.6l83.5-16.5c23-6.3,40.3-15.7,51.9-28.2
		c18.9-22.1,16.1-40.8,2.9-57.7c6.2,24.1-5,43.3-29.6,58.8c-18.5,11.1-39.3,18.8-62.3,23.2l-45.1,8.4c0.7-6.6,1.5-13.6,2.5-21.1
		C360,294,367,267.1,376.9,242.2z M317.9,407.6c-13.1,3-20.5-11.1-15.1-25.4c5.5-10.3,15.2-19.7,35.6-26.5
		C337.2,391.4,328,403,317.9,407.6z M390.4,279.3c5.8-18.7,23-33.1,29.3-25.7C426.4,264.2,406.2,276.2,390.4,279.3z M392.4,247.9
		c-21.5,18.8-26.7,51.9-11,66.2c19.7,12.8,44.5-1.1,57.6-38.4c-25.7,35.7-51.2,39.3-51.6,14.3c26.4-3.9,48.2-13.3,44-40.2
		C426.5,234.1,411.1,236.3,392.4,247.9z M141.4,370.3c-10.9,0-21.5-1.1-31.7-3.9c-24-8.3-44.3-19.1-56.5-35.2
		C38.7,315,35.8,297,53,275.7c-10.1,21.8-0.1,39.5,19.6,55.2c11.8,9,25.6,16.6,42.7,21.9c8.3,3.1,16.9,4.4,25.6,4.8
		c0.5-31.8,14.8-69.8,35.5-102.2c-7.5,4-15.2,3.1-21.1-1.9c-4.8,10.8-10,18.8-15.5,24.6c-3.9,4.2-8,7.4-12.2,9.7c0.1,1,0.1,2,0.2,3
		c0.1,4.7-0.6,9.5-1.9,14c-1.3,4.5-3.3,8.8-5.8,12.3c-3.6,5.1-8.4,8.6-14,9.2l0,0.1l-1.3,0l-1,0l0-0.1c-0.4,0-0.8,0-1.2-0.1
		c-9-0.8-15.9-5-20.5-12.4c-4.5-7.3-6.8-17.7-6.5-31.1c0.1-2.5,0.2-5,0.4-7.5l0-0.1c1.6-11,4-21.6,7.3-31.8
		c-4.4,0.7-8.7,0.9-13.1,0.9c-4.9,0-9.8-0.2-14.7-1c-5-0.8-10-2.3-15-4.8l0,0c-16.6-7-27.9-16.9-34.3-27.2C2,204.6,0,197.6,0,191
		c0-6.6,2.1-12.7,6.1-17.7c4.1-5.1,10.3-9,18.4-10.9l3.3-0.8l-2.2,2.7c-9,10.9-13,21.4-10.6,31.3c2.5,10,11.5,19.5,28.8,28.5
		c10.3,5,20.8,7.5,31.3,7c4.6-0.2,9.3-1,14-2.4c4.6-10.1,10.3-19.5,17.3-28.4l0,0c1.2-1.5,2.4-2.9,3.6-4.1c4.2-4.5,8.1-7.4,11.6-8.7
		c3.7-1.3,7-0.9,9.8,1.4l0.1,0.1l0.1,0l0.4,0.4l0.9,0.8l-0.2,0.1c0.1,0.2,0.3,0.4,0.4,0.6c2.3,4.3,1.1,10.8-2.5,17.7
		c-3.5,6.7-9.2,13.9-16.1,19.8c-3.6,3.1-7.4,5.8-11.4,7.9c-1.9,1.2-3.9,2.2-5.9,3c-2.2,5.9-4.1,12.1-5.7,18.4
		c-1.7,9.6-2.6,18-2.7,25.2c-0.1,9.4,1,16.7,3.3,21.8c2.2,4.9,5.4,7.7,9.5,8.4c0.6,0.1,1.3,0.2,1.9,0.2c1.7-0.3,3.2-0.8,4.5-1.6
		c4.3-2.5,7.3-7.4,9-12.8c0.6-2,1-4,1.3-6c-1.2,0.3-2.3,0.5-3.5,0.4c-2.9-0.1-5.7-1.2-8-3.1c-2.3-1.8-4.2-4.4-5.3-7.3
		c-0.7-1.9-1.1-4-1-6.2l0-0.1c0.3-2.7,1.1-4.9,2.4-6.7c1.1-1.5,2.5-2.6,4.1-3.3c1.6-0.7,3.3-1,5-0.8c1.9,0.2,3.9,0.9,5.6,2.2l0,0
		c3.9,2.7,6.5,6.8,8.1,11.4c1.6-1,3.1-2.1,4.6-3.2c7.9-6.1,14.6-15.7,20.6-27.7c-0.4-0.6-0.9-1.3-1.3-2c-7.8-15.8-5.3-25.3-0.1-28.2
		c8.5-3.2,14.3,10.4,8.2,28.5c8.1,6,21.6,2.8,31.2-9.8l17.9,0.1c-28.7,35.8-49.4,74.6-52.1,120.1c4.1-0.2,8.2-0.6,12.4-1
		c3.4,0,6.7,0.1,9.5,0.5c30.1,4.4,42.3,26.4,30,49c-12.8,14.8-29.6,19.1-45.8,7.2C148.7,401.1,142.6,386.6,141.4,370.3z
		 M166.4,368.5c-3.9,0.5-7.9,0.9-11.8,1.2c1.9,36.2,38.2,51,48.8,26.5C207.1,380.5,187.4,368.1,166.4,368.5z M132.6,8.2
		c-30.2-1.1-42.3,34.4-26.3,54.4c4.3,5.3,10.4,9.8,16.3,13.5c6.9,3.8,16.1,5.7,23.8,5.2c2.1-5.6,4.3-11.5,6.7-17.8
		c5.9-14.9,35.8-55.3,46.3-28l-0.1,0c9,16.6-14.8,50.6-44.8,56.7c-7.6,22-10.2,34.6-16.3,49.3l0,0c14.7,10.9,26,25.4,38.3,32.7
		c17.7,10.5,33.9,10.2,45.8-7.1c3.8-11.5,10.3-23.9,17.8-38.2l20.7,0.2c-17.6,26.2-24,41.8-27.8,58.3c-0.8,3.3-1.6,9.7,2.5,10.8
		c2.6,0.7,6.4-0.8,11.7-8.4l29.6-47.8c8.4-12.9,27.8-17.1,27-1.6c12.2-12.1,30.1-14.3,33.5,2.4c4.8-6.2,12.5-12.9,21.6-12
		c9.2,0.8,14,7.7,12.1,19.8c-1.3,7.9-5.9,18.1-12.2,30.4c-8,16.8-1.3,21.5,15.6,4.2c8.1-9.4,13.2-22.9,13.7-23.5
		c9.1-23.3,20.7-35.6,35.6-33.7c17.5,5.6,18.3,21.2,9.1,33.7c-7.4,10-21.5,17.5-35.9,19.5c-2.4,16.6,7.2,24.3,18.2,23.4
		c9.5-0.8,19.9-7.8,25.1-26.4c7,10.1-2.9,34.4-24.1,37.1c-21.9,1.8-32.5-12.8-32.5-27.9c-9.9,11.7-28.2,25.7-39.4,17.1
		c-5.2-5.9-1.7-16.6,6.7-35.4c1.8-4.2,3.7-8.8,5.9-13.7c3.1-6.6,1.7-9.3-1-9.7c-3.9-0.5-11.6,4.5-16.2,13.6l-21.2,47.4l-18.4-0.3
		l22.7-49.2c9.5-19-10.3-17-19.5,0.5L282.3,206l-17.2,0.2l24.1-52.4c7-13.7,0.4-15.8-6.3-8.4c-13,20-20.5,32.5-27.4,45
		c-7.3,13.2-16.9,17.2-23.8,15.2c-7-1.9-10.7-6.7-12.1-13.5c-7.2,10.5-35,14.7-56.3-3.3c-10.8-9.1-21.8-22.2-32.1-32.2
		c-5.1,9.1-13.9,16.5-21.6,22.4c-11.6,8.8-23.8,13.9-35.1,14.7c-24.8,1.7-45-15.2-41.4-38.1c7.9-27.7,34.2-47.1,93-22.3
		c5.7-11.9,10.6-24.8,16.1-39.9c-1.6-0.1-3.2-0.3-4.8-0.6c-6.4-1.3-42.6-9-53.1-52.1C79,11.6,112.1-13.5,132.6,8.2z"/>
</g>
</svg>
