<svg id="Layer_1" data-name="Layer 1" xmlns="http://www.w3.org/2000/svg" viewBox="0 0 30 30"><defs><style>.cls-1{fill:#ccc;}</style></defs><title>social</title><g id="sc-twitter"><path id="Fill-122" class="cls-1" d="M27.91,7a10.72,10.72,0,0,1-3,.84A5.32,5.32,0,0,0,27.2,4.89a10.53,10.53,0,0,1-3.37,1.29,5.3,5.3,0,0,0-9.17,3.62A5.21,5.21,0,0,0,14.81,11,15,15,0,0,1,3.88,5.46a5.31,5.31,0,0,0,1.65,7.08,5.17,5.17,0,0,1-2.41-.66v0.07a5.3,5.3,0,0,0,4.25,5.2,5.35,5.35,0,0,1-1.4.19,5,5,0,0,1-1-.1,5.31,5.31,0,0,0,5,3.68,10.63,10.63,0,0,1-6.58,2.27,10.79,10.79,0,0,1-1.26-.08,14.82,14.82,0,0,0,8.11,2.4,15,15,0,0,0,15.09-15.1c0-.23,0-0.46,0-0.68A10.79,10.79,0,0,0,27.91,7"/></g></svg>