<svg id="Layer_1" data-name="Layer 1" xmlns="http://www.w3.org/2000/svg" viewBox="0 0 30 30"><defs><style>.cls-1{fill:#ccc;}</style></defs><title>social</title><g id="sc-vk"><path id="Fill-128" class="cls-1" d="M14.69,23.16h1.73a1.45,1.45,0,0,0,.79-0.34,1.26,1.26,0,0,0,.24-0.76s0-2.31,1-2.66,2.42,2.24,3.86,3.23a2.73,2.73,0,0,0,1.92.59l3.85-.05s2-.12,1.06-1.71a12.87,12.87,0,0,0-2.87-3.32c-2.42-2.24-2.09-1.88.82-5.76C28.9,10,29.61,8.57,29.39,8s-1.52-.43-1.52-0.43l-4.34,0a1,1,0,0,0-.56.1,1.22,1.22,0,0,0-.38.47A25.21,25.21,0,0,1,21,11.5c-1.93,3.28-2.71,3.45-3,3.25-0.73-.47-0.55-1.91-0.55-2.93,0-3.18.48-4.51-.94-4.85a7.42,7.42,0,0,0-2-.2,9.36,9.36,0,0,0-3.6.37C10.35,7.38,10,7.92,10.2,8a2,2,0,0,1,1.28.64,4.2,4.2,0,0,1,.43,2s0.25,3.74-.6,4.21c-0.59.32-1.39-.33-3.11-3.31A27.65,27.65,0,0,1,6.66,8.25,1.29,1.29,0,0,0,6.3,7.76a1.8,1.8,0,0,0-.67-0.27l-4.12,0a1.41,1.41,0,0,0-.85.29,0.9,0.9,0,0,0,0,.73S3.88,16.1,7.53,19.9a9.9,9.9,0,0,0,7.16,3.26"/></g></svg>