<svg id="Layer_1" data-name="Layer 1" xmlns="http://www.w3.org/2000/svg" viewBox="0 0 30 30"><defs><style>.cls-1{fill:#ccc;}</style></defs><title>social</title><g id="sc-skype"><path id="Fill-11" class="cls-1" d="M27.87,9.79a5.69,5.69,0,0,0-1-2.61A3.75,3.75,0,0,0,24.2,6.07C20.52,5.8,15,5.8,15,5.8h0s-5.51,0-9.19.27A3.75,3.75,0,0,0,3.17,7.18a5.69,5.69,0,0,0-1,2.61A39.74,39.74,0,0,0,1.86,14v1.91a39.72,39.72,0,0,0,.26,4.25,5.69,5.69,0,0,0,1,2.61,4.46,4.46,0,0,0,2.9,1.12c2.1,0.2,8.93.26,8.93,0.26s5.52,0,9.2-.27a3.76,3.76,0,0,0,2.63-1.11,5.69,5.69,0,0,0,1-2.61,39.72,39.72,0,0,0,.26-4.25V14a39.74,39.74,0,0,0-.26-4.25h0ZM12.29,18.45V11.07l7.1,3.7-7.1,3.68h0Z"/></g></svg>