<svg id="Layer_1" data-name="Layer 1" xmlns="http://www.w3.org/2000/svg" viewBox="0 0 30 30"><defs><style>.cls-1{fill:#ccc;}</style></defs><title>social</title><g id="sc-instagram"><path id="Fill-2" class="cls-1" d="M23.76,13.25h-2a7,7,0,1,1-13.55,0h-2v9.63a0.88,0.88,0,0,0,.88.87H22.88a0.88,0.88,0,0,0,.88-0.87V13.25h0Zm0-6.13a0.88,0.88,0,0,0-.88-0.88H20.25a0.88,0.88,0,0,0-.88.88V9.75a0.88,0.88,0,0,0,.88.88h2.63a0.88,0.88,0,0,0,.88-0.88V7.12h0ZM15,10.62A4.38,4.38,0,1,0,19.38,15,4.38,4.38,0,0,0,15,10.62h0Zm8.76,15.76H6.24a2.63,2.63,0,0,1-2.63-2.63V6.24A2.63,2.63,0,0,1,6.24,3.62H23.76a2.63,2.63,0,0,1,2.63,2.63V23.76a2.63,2.63,0,0,1-2.63,2.63h0Z"/></g></svg>